<svg width="30" height="30" version="1.1" viewBox="0 0 7.9375 7.9375" xmlns="http://www.w3.org/2000/svg">
  <g transform="translate(-59.282 -110.97)">
    <g transform="matrix(.17045 0 0 .17045 52.011 94.923)">
      <path d="m59.239 94.152v3.528h-6.35v3.175h-3.5274v3.5274h6.7024v3.175h3.175v9.878h-3.175v3.5279h-6.7024v-3.5279h-3.175v-3.175h-3.5279v23.283h3.5279v3.175h6.7024v-3.175h3.175v-3.528h3.175v3.528h3.5279v3.175h6.7029v-3.175h3.175v-3.528h3.5274v3.528h3.175v3.175h6.7029v-3.175h3.175v-23.283h-3.175v-9.878h-3.5279v-3.5274h-3.175v-3.175h-6.7024v-3.528h-6.7029zm-9.8774 10.23h-3.175v3.175h3.175v-1.5875zm20.108 0h6.7024v3.175h3.175v9.878h-3.175v3.5279h-6.7024v-3.5279h-3.5279v-9.878h3.5279v-1.5875z" fill="#ffb751" stroke-width=".35278"/>
      <g stroke-width=".35278">
        <path d="m72.821 120.96h-3.3514v-3.5278h3.175v-6.7028h-6.7028v-3.175h3.5278v-3.175h6.7028v3.175h3.175v9.8778h-3.175v3.5278z" fill="#ddddfe"/>
        <path d="m52.712 120.96h-3.3514v-3.5278h3.5278v-6.7028h-6.7028v-3.175h3.175v-3.175h6.7028v3.175h3.175v9.8778h-3.175v3.5278z" fill="#ddddfe"/>
        <path d="m69.293 117.44h-3.3514v-6.7028h6.7028v6.7028z" fill="#2020fe"/>
        <path d="m49.537 117.44h-3.3514v-6.7028h6.7028v6.7028z" fill="#2020fe"/>
      </g>
    </g>
  </g>
</svg>
