<svg width="30" height="30" version="1.1" viewBox="0 0 7.9375 7.9375" xmlns="http://www.w3.org/2000/svg">
  <g transform="translate(-59.282 -110.97)">
    <g transform="matrix(.17045 0 0 .17045 51.843 95.314)">
      <path d="m60.578 91.859v3.528h-6.7029v3.175h-3.5279v3.5274h-3.175v9.878h-3.5274v23.283h3.5274v3.175h6.7029v-3.175h3.175v-3.528h3.5279v3.528h3.175v3.175h6.7024v-3.175h3.175v-3.528h3.5279v3.528h3.175v3.175h6.7029v-3.175h3.175v-23.283h-3.175v3.175h-3.175v3.528h-6.7029v-3.528h-3.5279v-9.878h3.5279v-3.175h6.7029v-3.5274h-3.5279v-3.175h-6.7029v-3.528zm23.283 10.23v3.175h3.175v-3.175h-1.5875zm-26.811 0h6.7029v3.175h3.175v9.878h-3.175v3.528h-6.7029v-3.528h-3.175v-9.878h3.175v-1.5875z" fill="#ffb751"/>
      <path d="m57.05 102.09v3.175h-3.175v9.878h3.175v3.5279h6.7029v-3.5279h-3.175v-6.703h6.35v-3.175h-3.175v-3.175h-3.3517zm20.108 0v3.175h-3.5279v9.878h3.5279v3.5279h6.7029v-3.5279h-3.5279v-6.703h6.7029v-3.175h-3.175v-3.175h-3.3517z" fill="#ddddfe"/>
      <path d="m60.578 108.44v6.703h6.35v-6.703h-3.175zm19.755 0v6.703h6.7029v-6.703h-3.3517z" fill="#2020fe"/>
    </g>
  </g>
</svg>
