<svg width="30" height="30" version="1.1" viewBox="0 0 7.9375 7.9375" xmlns="http://www.w3.org/2000/svg">
  <g transform="translate(-59.367 -110.97)">
    <g transform="matrix(.16981 0 0 .17045 49.286 92.056)">
      <path d="m76.124 127.55v6.703h6.703v-6.703h-3.3517zm19.755 0v6.703h6.703v-6.703h-3.3512z" fill="#2020fe"/>
      <path d="m76.124 110.97v3.528h-6.703v3.175h-3.5274v3.5274h-3.175v9.878h-3.3517v26.458h3.3517v-3.175h3.175v-3.528h3.5274v3.528h3.175v3.175h6.703v-6.703h6.7029v6.703h6.7024v-3.175h3.175v-3.528h3.5279v3.528h3.175v3.175h3.5279v-26.458h-3.5279v3.175h-3.175v3.528h-6.7029v-3.528h-3.5274v-9.878h3.5274v-3.175h6.7029v-3.5274h-3.5279v-3.175h-6.7024v-3.528zm23.283 10.23v3.175h3.175v-3.175h-1.5875zm-26.811 0h6.703v3.175h3.528v9.878h-3.528v3.528h-6.703v-3.528h-3.175v-9.878h3.175v-1.5875z" fill="#ffb751" stroke-width=".35278"/>
      <path d="m72.596 121.2v3.175h-3.175v9.878h3.175v3.528h6.703v-3.528h-3.175v-6.703h6.703v-3.175h-3.528v-3.175h-3.3512zm20.108 0v3.175h-3.5274v9.878h3.5274v3.528h6.7029v-3.528h-3.5279v-6.703h6.703v-3.175h-3.175v-3.175h-3.3512z" fill="#ddddfe"/>
    </g>
  </g>
</svg>
