<svg width="30" height="30" version="1.1" viewBox="0 0 7.9375 7.9375" xmlns="http://www.w3.org/2000/svg">
  <g transform="translate(-59.282 -110.97)">
    <g transform="matrix(.20548 0 0 .20548 50.272 91.451)" stroke-width=".26458">
      <path d="m57.608 95.001v2.6458h-5.5562v2.9104h-2.6458v2.6458h-2.6458v8.4667h-2.9104v19.05h2.9104v2.9104h5.2917v-2.9104h2.9104v-2.6458h2.6458v2.6458h2.9104v2.9104h5.2917v-2.9104h2.9104v-2.6458h2.6458v2.6458h2.9104v2.9104h5.2917v-2.9104h2.9104v-19.05h-2.9104v-8.4667h-2.6458v-2.6458h-2.6458v-2.9104h-5.5562v-2.6458h-5.5562zm-2.6458 13.758h5.5562v5.5562h-5.5562v-2.7781zm10.848 0h5.5562v5.5562h-5.5562v-2.7781zm-16.404 11.112h5.5562v2.6458h5.5562v-2.6458h5.2917v2.6458h5.5562v-2.6458h5.5562v2.6458h2.6458v2.9104h-2.6458v-2.9104h-5.5562v2.9104h-5.5562v-2.9104h-5.2917v2.9104h-5.5562v-2.9104h-5.5562v2.9104h-2.6458v-2.9104h2.6458v-1.3229z" fill="#2020fe"/>
      <g fill="#feb6ad">
        <path d="m68.589 114.32h-2.7781v-5.5562h5.5562v5.5562z"/>
        <path d="m57.741 114.32h-2.7781v-5.5562h5.5562v5.5562z"/>
        <path d="m48.083 125.43h-1.3229v-2.9104h2.6458v-2.6458h5.5562v2.6458h5.5562v-2.6458h5.2917v2.6458h5.5562v-2.6458h5.5562v2.6458h2.6458v2.9104h-2.6458v-2.9104h-5.5562v2.9104h-5.5562v-2.9104h-5.2917v2.9104h-5.5562v-2.9104h-5.5562v2.9104z"/>
      </g>
    </g>
  </g>
</svg>
