<svg width="30" height="30" version="1.1" viewBox="0 0 7.9375 7.9375" xmlns="http://www.w3.org/2000/svg">
  <g transform="translate(-59.282 -110.97)">
    <g transform="matrix(.20548 0 0 .20548 49.512 92.328)" stroke-width=".26458">
      <path d="m61.465 90.731v2.6458h-5.5562v2.9104h-2.6458v2.6458h-2.9104v8.4667h-2.6458v21.96h2.6458v-2.9104h2.9104v-2.6458h2.6458v2.6458h2.6458v2.9104h5.5562v-5.5562h5.5562v5.5562h5.5562v-2.9104h2.6458v-2.6458h2.9104v2.6458h2.6458v2.9104h2.6458v-21.96h-2.6458v-8.4667h-2.6458v-2.6458h-2.9104v-2.9104h-5.5562v-2.6458h-5.424zm-2.9104 13.758h5.5562v5.5562h-5.5562v-2.7781zm11.112 0h5.5562v5.5562h-5.5562v-2.7781zm-16.404 11.112h5.2917v2.6458h5.5562v-2.6458h5.5562v2.6458h5.5562v-2.6458h5.5562v2.6458h2.6458v2.9104h-2.6458v-2.9104h-5.5562v2.9104h-5.5562v-2.9104h-5.5562v2.9104h-5.5562v-2.9104h-5.2917v2.9104h-2.9104v-2.9104h2.9104v-1.3229z" fill="#2020fe"/>
      <g fill="#feb6ad">
        <path d="m72.446 110.05h-2.7781v-5.5562h5.5562v5.5562z"/>
        <path d="m61.333 110.05h-2.7781v-5.5562h5.5562v5.5562z"/>
        <path d="m51.808 121.16h-1.4552v-2.9104h2.9104v-2.6458h5.2917v2.6458h5.5562v-2.6458h5.5562v2.6458h5.5562v-2.6458h5.5562v2.6458h2.6458v2.9104h-2.6458v-2.9104h-5.5562v2.9104h-5.5562v-2.9104h-5.5562v2.9104h-5.5562v-2.9104h-5.2917v2.9104z"/>
      </g>
    </g>
  </g>
</svg>
