<svg width="30" height="30" version="1.1" viewBox="0 0 7.9375 7.9375" xmlns="http://www.w3.org/2000/svg">
  <g transform="translate(-59.282 -110.97)">
    <g transform="matrix(.17045 0 0 .17045 52.182 95.397)" stroke-width=".35278">
      <path d="m48.361 137.94h-3.175v-3.175h-3.5278v-23.283h3.5278v-9.8778h3.175v6.35h3.175v3.5278h6.7028v-3.5278h3.5278v-9.8778h-3.5278v-6.7028h13.406v6.7028h-3.175v9.8778h3.175v3.5278h6.7028v-3.5278h3.175v-6.35h3.5278v9.8778h3.175v23.283h-3.175v3.175h-6.7028v-3.175h-3.5278v-3.5278h-3.175v3.5278h-3.175v3.175h-6.7028v-3.175h-3.5278v-3.5278h-3.175v3.5278h-3.5278v3.175z" fill="#fe0000"/>
      <path d="m74.996 111.48h-3.3514v-3.5278h-3.175v-9.8778h3.175v3.5278h6.7028v-3.5278h3.175v9.8778h-3.175v3.5278z" fill="#ddddfe"/>
      <path d="m54.887 111.48h-3.3514v-3.5278h-3.175v-9.8778h3.175v3.5278h6.7028v-3.5278h3.5278v9.8778h-3.5278v3.5278z" fill="#ddddfe"/>
      <path d="m74.996 101.6h-3.3514v-6.7028h6.7028v6.7028z" fill="#2020fe"/>
      <path d="m54.887 101.6h-3.3514v-6.7028h6.7028v6.7028z" fill="#2020fe"/>
    </g>
  </g>
</svg>
