<svg width="30" height="30" version="1.1" viewBox="0 0 7.9375 7.9375" xmlns="http://www.w3.org/2000/svg">
  <g transform="translate(-59.282 -110.97)">
    <g transform="matrix(.17045 0 0 .17045 51.95 95.748)">
      <path d="m59.599 89.31v3.528h-6.7024v3.175h-3.175v3.5274h-3.175v9.878h-3.528v26.458h3.528v-3.175h3.175v-3.528h3.175v3.528h3.5274v3.175h6.703v-6.703h6.703v6.703h6.35v-3.175h3.5274v-3.528h3.175v3.528h3.528v3.175h3.175v-26.458h-3.175v-9.878h-3.528v-3.5274h-3.175v-3.175h-6.7024v-3.528h-6.703zm-6.7024 13.405h6.7024v3.175h3.528v10.231h-3.528v3.175h-6.7024v-3.175h-3.175v-10.231h3.175v-1.5875zm20.108 0h6.7024v3.175h3.175v10.231h-3.175v3.175h-6.7024v-3.175h-3.175v-10.231h3.175v-1.5875z" fill="#fe0000" stroke-width=".35278"/>
      <g stroke-width=".35278">
        <path d="m71.418 116.12h-1.5875v-10.231h3.175v-3.175h6.7028v3.175h3.175v10.231h-3.175v-3.5278h-6.7028v3.5278z" fill="#ddddfe"/>
        <path d="m51.309 116.12h-1.5875v-10.231h3.175v-3.175h6.7028v3.175h3.5278v10.231h-3.5278v-3.5278h-6.7028v3.5278z" fill="#ddddfe"/>
        <path d="m76.357 119.3h-3.3514v-6.7028h6.7028v6.7028z" fill="#2020fe"/>
        <path d="m56.248 119.3h-3.3514v-6.7028h6.7028v6.7028z" fill="#2020fe"/>
      </g>
    </g>
  </g>
</svg>
