<svg width="30" height="30" version="1.1" viewBox="0 0 7.9375 7.9375" xmlns="http://www.w3.org/2000/svg">
  <g transform="translate(-59.282 -110.97)">
    <g transform="translate(-101.74 8.5437)" fill="#fefe00" stroke-width=".077277">
      <path d="m165.61 104.44h-0.27047v-0.61822h0.54095v-0.54093h0.61821v0.54093h-0.61821v0.61822z"/>
      <path d="m164.42 104.44h-0.30911v-0.61822h-0.61821v-0.54093h0.61821v0.54093h0.61822v0.61822z"/>
      <path d="m163.22 105.06h-0.27047v-0.61822h-0.61822v-0.61822h0.61822v0.61822h0.54094v0.61822z"/>
      <path d="m166.81 105.68h-0.30911v-0.61821h0.61822v-0.61822h0.61821v0.61822h-0.61821v0.61821z"/>
      <path d="m162.33 106.22h-0.61822v-0.54094h1.2364v0.54094z"/>
      <path d="m167.74 106.84h-0.61821v-0.61822h1.2364v0.61822z"/>
      <path d="m162.64 108.08h-0.30911v-0.61821h0.61822v-0.61822h0.54094v0.61822h-0.54094v0.61821z"/>
      <path d="m167.43 108.62h-0.30911v-0.54094h-0.61822v-0.61821h0.61822v0.61821h0.61821v0.54094z"/>
      <path d="m166.19 109.23h-0.3091v-0.61822h-0.54095v-0.54094h0.54095v0.54094h0.61821v0.61822z"/>
      <path d="m163.8 109.23h-0.30911v-0.61822h0.61821v-0.54094h0.61822v0.54094h-0.61822v0.61822z"/>
    </g>
  </g>
</svg>
